{
  "accessors": [
    {
      "bufferView": 2,
      "componentType": 5126,
      "count": 2367,
      "max": [
        45.720664978027344,
        20.091392517089844,
        21.937232971191406
      ],
      "min": [
        -45.38519287109375,
        -20.091394424438477,
        -22.106876373291016
      ],
      "type": "VEC3"
    },
    {
      "bufferView": 2,
      "byteOffset": 28404,
      "componentType": 5126,
      "count": 2367,
      "type": "VEC3"
    },
    {
      "bufferView": 3,
      "componentType": 5126,
      "count": 2367,
      "type": "VEC4"
    },
    {
      "bufferView": 1,
      "componentType": 5126,
      "count": 2367,
      "type": "VEC2"
    },
    {
      "bufferView": 1,
      "byteOffset": 18936,
      "componentType": 5126,
      "count": 2367,
      "type": "VEC2"
    },
    {
      "bufferView": 1,
      "byteOffset": 37872,
      "componentType": 5126,
      "count": 2367,
      "type": "VEC2"
    },
    {
      "bufferView": 1,
      "byteOffset": 56808,
      "componentType": 5126,
      "count": 2367,
      "type": "VEC2"
    },
    {
      "bufferView": 0,
      "componentType": 5125,
      "count": 7761,
      "type": "SCALAR"
    }
  ],
  "asset": {
    "generator": "fab-model-conversion",
    "version": "2.0"
  },
  "bufferViews": [
    {
      "buffer": 0,
      "byteLength": 31044,
      "target": 34963
    },
    {
      "buffer": 0,
      "byteLength": 75744,
      "byteOffset": 31044,
      "byteStride": 8,
      "target": 34962
    },
    {
      "buffer": 0,
      "byteLength": 56808,
      "byteOffset": 106788,
      "byteStride": 12,
      "target": 34962
    },
    {
      "buffer": 0,
      "byteLength": 37872,
      "byteOffset": 163596,
      "byteStride": 16,
      "target": 34962
    }
  ],
  "buffers": [
    {
      "byteLength": 201468,
      "uri": "scene.bin"
    }
  ],
  "images": [
    {
      "uri": "textures/Cannon_baseColor.png"
    },
    {
      "uri": "textures/Cannon_metallicRoughness.png"
    },
    {
      "uri": "textures/Cannon_normal.png"
    }
  ],
  "materials": [
    {
      "doubleSided": true,
      "name": "Cannon",
      "normalTexture": {
        "index": 2
      },
      "occlusionTexture": {
        "index": 1
      },
      "pbrMetallicRoughness": {
        "baseColorTexture": {
          "index": 0
        },
        "metallicRoughnessTexture": {
          "index": 1
        }
      }
    }
  ],
  "meshes": [
    {
      "name": "Cannon_Cannon_0",
      "primitives": [
        {
          "attributes": {
            "NORMAL": 1,
            "POSITION": 0,
            "TANGENT": 2,
            "TEXCOORD_0": 3,
            "TEXCOORD_1": 4,
            "TEXCOORD_2": 5,
            "TEXCOORD_3": 6
          },
          "indices": 7,
          "material": 0,
          "mode": 4
        }
      ]
    }
  ],
  "nodes": [
    {
      "children": [
        1
      ],
      "matrix": [
        1.0,
        0.0,
        0.0,
        0.0,
        0.0,
        2.220446049250313e-16,
        -1.0,
        0.0,
        0.0,
        1.0,
        2.220446049250313e-16,
        0.0,
        0.0,
        0.0,
        0.0,
        1.0
      ],
      "name": "Sketchfab_model"
    },
    {
      "children": [
        2
      ],
      "matrix": [
        0.009999999776482582,
        0.0,
        0.0,
        0.0,
        0.0,
        0.0,
        0.009999999776482582,
        0.0,
        0.0,
        -0.009999999776482582,
        0.0,
        0.0,
        0.0,
        0.0,
        0.0,
        1.0
      ],
      "name": "Cannon.fbx"
    },
    {
      "children": [
        3
      ],
      "name": "RootNode"
    },
    {
      "children": [
        4
      ],
      "matrix": [
        1.0,
        0.0,
        0.0,
        0.0,
        0.0,
        2.220446049250313e-16,
        -1.0,
        0.0,
        0.0,
        1.0,
        2.220446049250313e-16,
        0.0,
        0.0,
        22.111312866210938,
        0.0,
        1.0
      ],
      "name": "Cannon"
    },
    {
      "mesh": 0,
      "name": "Cannon_Cannon_0"
    }
  ],
  "samplers": [
    {
      "magFilter": 9729,
      "minFilter": 9987,
      "wrapS": 10497,
      "wrapT": 10497
    }
  ],
  "scene": 0,
  "scenes": [
    {
      "name": "Sketchfab_Scene",
      "nodes": [
        0
      ]
    }
  ],
  "textures": [
    {
      "sampler": 0,
      "source": 0
    },
    {
      "sampler": 0,
      "source": 1
    },
    {
      "sampler": 0,
      "source": 2
    }
  ]
}
